<svg xmlns="http://www.w3.org/2000/svg" viewBox="0 0 800 568.2"><path d="M793.1 274.9c-12-60.6-39.7-121.1-89.6-168.6C658.6 63.5 597.6 31.9 531 15.1 388-21.3 220.7 9.7 111.2 91.2 59.1 130.1 21.7 180.8 6.9 236.4c-15.3 57.4-5.2 117.4 30.7 168.9 8.7 12.4 18.9 24 30.1 35.1 1.2 1.2 2.7 1.5 4 1.3.1.7.6 1.6 1.8 2.2 29.1 18.7 64.6 27.9 100.5 34.8 40.3 7.7 81 13.6 122 18 83.2 8.7 167.6 10.6 251.3 5.3 40.9-2.5 81.7-6.8 122.2-12.5 20.8-3 41.5-6.5 62-10.3 15.6-3 36-4.7 45.6-16.5 4.1-5.2 6-11.2 7.8-17.1 2.5-8.3 4.7-16.7 6.6-24.9 3.7-16.2 6.2-32.8 7.7-49.3 2.2-32.1.3-64.6-6.1-96.5z" fill="#56597a"/><path d="M781.6 466.7c-10.3-16.7-29.8-31.1-49.9-42.8-19.6-11.5-41.9-20.8-65.9-27.4-18.7-5.3-38.1-8.6-57.8-10.9-51.2-11.5-105.6-16.4-159.6-14.2-62.8-1.8-126 .3-188.3 6.2-31.6 3-63 7.1-94.1 12-27.1 4.4-55 9.6-78.3 20.5-22.3 10.5-39.2 25.2-54.1 40.3-14.8 14.9-27 32.8-17.7 50.9 18.9 36.6 89.1 44 137.8 50.9 123 17.7 250.4 20.1 375.3 10.5 30.5-2.4 60.8-5.3 91-9s61.2-7.2 90.7-13.3c24.3-5 47.8-13 63.1-27.1 15-13.8 17.7-30.6 7.8-46.6z" fill="#b4c7e7"/><path d="M591.6 193.2c-1.2 0-2.5.1-3.5.4-5.8-.1-8.9-5.8-6.8-11.5.6-1.5.3-2.7-.4-3.5v-.6c.4-5.5-8.1-5.5-8.6 0-.6 6.2-3.5 11.8-8.7 15.3-4.6 3.2-.7 9.4 4.3 7.4 4.4-1.9 6.5 5.6 7.2 8.4 1 3.8 7.5 4.3 8.3 0 .6-3.5 2.7-6.2 5.9-6.9 1 0 2.2-.1 3.2-.4 4.8-1.4 3.8-8.8-.9-8.6zM363.2 294.3c-.7-.1-1.5-.1-2.2-.1-4.9-.7-7.4-5.2-5.6-10.3 1-3.1-1.3-5-3.8-5.2-2.8-1.6-7.4.7-6.3 4.9 1 4.7-1.3 9.1-5.2 11.4-1.3.3-2.7.7-4 1.6-4.1 2.5-1.5 8.9 3.2 7.8 1-.3 2.1-.6 3-1 2.7.1 4.7 3.8 6 5.9 1.8 2.8 7.2 2.8 7.8-1 .4-3.2 2.4-5 5.2-5.3h2.2c5.3-.6 5-8-.3-8.7zM188.7 143.2c-5.9-.6-11.2-3.5-14.9-8.3-2.8-3.7-8.9-1.8-7.8 3.2.1.3.1.7.3 1-.3 1.8-1.2 3.2-2.4 4.3-2.2.4-4.3 1.5-6.5 3.2-3.5 3 .4 7.8 4.1 7.1 2.1-.4 4-1.2 5.8-2.2 3.7.7 7.1 6.2 8.7 8.7 2.4 3.8 7.5 1.9 8-2.2.3-3.5 2.7-5.9 6-6.8 4.7-.9 3.2-7.6-1.3-8zm-11.8 5c.6.3 1.2.6 1.9.9-.1.1-.3.3-.4.6-.5-.5-.9-1.1-1.5-1.5zm297.6-63.3c-1.6.3-7.5-.9-4.7-3.7 3-3 .1-7.1-3-7.2-2.4-1.9-6.9-.9-7.1 3.2-.1 4.6-2.4 8.1-5.8 10.5-.9.3-1.6.7-2.4 1.3-4.6 3.2-.7 9.6 4.3 7.4.7-.3 1.3-.6 2.1-1 3.4-1.2 6.6.9 7.2 5 .9 5.5 9 3.1 8.3-2.2-.3-2.4 1.5-4.3 3.5-4.9 5.2-1.8 2.9-9.1-2.4-8.4z" fill="#f7d06f"/><path d="M557.2 349.7c-5.5 0-5.5 8.6 0 8.6 5.5-.2 5.5-8.6 0-8.6zm109.9-34.9c-5.5 0-5.5 8.6 0 8.6 5.5-.2 5.5-8.6 0-8.6zm-22.2-135.2h-.9c-2.2 0-4.4 1.9-4.3 4.3.1 2.4 1.9 4.3 4.3 4.3h.9c2.2 0 4.4-1.9 4.3-4.3-.2-2.4-2-4.3-4.3-4.3zM475.2 236c-5.5 0-5.5 8.6 0 8.6 5.4-.2 5.4-8.6 0-8.6zm-63.7-63.9c-2.4.1-4.3 1.9-4.3 4.3v.9c0 2.2 1.9 4.4 4.3 4.3 2.4-.1 4.3-1.9 4.3-4.3v-.9c-.1-2.2-2-4.3-4.3-4.3zm102.2-93.5l-.9-.9c-1.6-1.6-4.4-1.6-6 0-1.6 1.8-1.6 4.3 0 6l.9.9c1.6 1.6 4.4 1.6 6 0 1.5-1.8 1.6-4.4 0-6zM475 139.3c-5.5 0-5.5 8.6 0 8.6s5.5-8.6 0-8.6zm-95.4 81.2c-5.5 0-5.5 8.6 0 8.6 5.4-.2 5.4-8.6 0-8.6zm147.2-56.7l-.9-.9c-1.6-1.6-4.4-1.6-6 0-1.6 1.8-1.6 4.3 0 6l.9.9c1.6 1.6 4.4 1.6 6 0 1.6-1.7 1.8-4.3 0-6zm-129.2 97.4c-5.5 0-5.5 8.6 0 8.6 5.4-.2 5.4-8.6 0-8.6zM131 211.8c-1.8-1.6-4.3-1.6-6 0l-.9.9c-1.6 1.6-1.6 4.4 0 6 1.8 1.6 4.3 1.6 6 0l.9-.9c1.6-1.6 1.8-4.4 0-6zm42.6 63.7c-2.4.1-4.3 1.9-4.3 4.3v.9c0 2.2 1.9 4.4 4.3 4.3 2.4-.1 4.3-1.9 4.3-4.3v-.9c0-2.2-1.9-4.4-4.3-4.3zm.9 72.5c-5.5 0-5.5 8.6 0 8.6 5.5-.2 5.5-8.6 0-8.6zm-46.9-57.6c-5.5 0-5.5 8.6 0 8.6 5.5-.2 5.5-8.6 0-8.6z" fill="#fff"/><path d="M375.3 510.7c-6.3.3-12.8.4-19.2.7-5.6.1-5.8 9 0 8.9 6.3-.3 12.8-.4 19.2-.7 5.6-.4 5.6-9.2 0-8.9zM703.7 456c-.4-1-1.3-1.8-2.8-2.1-6.9-1.2-18.6-2.5-23.5 4.3-4.7 6.6 1 14.3 8 15.8 6.8 1.5 16.5-.7 21.1-6.2 3.9-4.6 1.6-9.9-2.8-11.8zm-10 9.1c-2.1.4-5.2 1-7.2.1-3.7-1.6.9-2.8 2.7-3 2.5-.3 5-.1 7.5.1.3.4.7.9 1.3 1.2-.1 0-.1.1-.3.1-1.4.5-2.5 1.1-4 1.5zm-312.5-20.5c-4.6 0-9.3.6-13.7 1.8-5.5 1.3-3.2 9.9 2.4 8.6 3.7-.9 7.5-1.3 11.4-1.3 5.7-.3 5.7-9.1-.1-9.1zm193.3 49h-8.9c-5.8 0-5.8 8.9 0 8.9h8.9c5.6-.1 5.6-8.9 0-8.9zm75.5-67.3c-3.5-1.3-7.7-1.3-11.4 0-2.2.7-3.7 3.1-3.1 5.5.6 2.2 3.1 3.8 5.5 3.1 2.4-.7 4.3-.7 6.6 0 2.2.7 4.9-.9 5.5-3.1.8-2.5-.7-4.8-3.1-5.5zm-442.4 8.9c-.7-.9-1.8-1.5-3.1-1.5-8.1-.4-21.4-1.2-25.8 7.2-4.3 8 4 14.8 11.2 16.2 7.4 1.5 18.9.1 23.9-6.2 4.8-6.5 0-13.1-6.2-15.7zm-1.8 10.9c-.6 1.2-3.7 1.6-4.7 2.1-3.4 1-7.5 1.3-10.9.1-5.5-1.8-3.1-4.6 1.5-5.5 3.1-.6 6.3-.6 9.4-.4.4.1.7.4 1.3.6 1.2 0 2.2.4 3 1.3 1.6.3 1.7 1 .4 1.8zm56.5 62.5c-.7-2.5-3.1-3.5-5.5-3.1-4.7.7-9.3 1.6-14 2.4-2.4.4-3.7 3.2-3.1 5.5.7 2.5 3.1 3.5 5.5 3.1 4.7-.7 9.3-1.6 14-2.4 2.4-.5 3.5-3.3 3.1-5.5zm125.8-114.2c-4.1-.3-8.4-.4-12.5-.7-5.8-.3-5.6 8.6 0 8.9 4.1.3 8.4.4 12.5.7 5.6.3 5.6-8.6 0-8.9zm-231.6 19.8c-.7-2.5-3.1-3.4-5.5-3.1-1.5.1-3.2 0-5-.6-2.2-.7-4.9.9-5.5 3.1-.6 2.4.7 4.7 3.1 5.5 3.2 1 6.5 1 9.7.6 2.5-.3 3.8-3.3 3.2-5.5zm-33.2 74.9c-5.3-.4-10.5-.9-15.8-1.3-5.6-.4-5.6 8.4 0 8.9 5.3.4 10.5.9 15.8 1.3 5.6.4 5.6-8.4 0-8.9zM641.5 503c-4.4-.1-8.7.3-13 1.3-5.6 1.3-3.2 9.7 2.4 8.6 3.5-.7 6.9-1 10.6-1 5.7.1 5.7-8.7 0-8.9zm96-19.2c-3.5-.1-7.1.9-10 2.7-2.1 1.3-2.8 4-1.6 6 1.2 2.1 4 2.8 6 1.6 1.8-1.2 3.4-1.5 5.6-1.5 2.4.1 4.4-2.1 4.4-4.4 0-2.3-2-4.2-4.4-4.4zm-266.7 34.9c-4-.4-7.8-.9-11.8-1.3-2.4-.3-4.4 2.2-4.4 4.4 0 2.7 2.1 4.1 4.4 4.4 4 .4 7.8.9 11.8 1.3 2.4.3 4.4-2.2 4.4-4.4 0-2.7-2.1-4.3-4.4-4.4zm-290.4-5.2h-11.8c-5.8 0-5.8 8.9 0 8.9h11.8c5.6-.1 5.6-8.9 0-8.9zm-82.2-64.8c-4.3 1-8.6 1.9-12.8 3-5.6 1.2-3.2 9.7 2.4 8.6 4.3-1 8.6-1.9 12.8-3 5.5-1.3 3.1-9.9-2.4-8.6z" fill="#57455d"/><path d="M643.2 230.1c-2.4.1-4.4 1.9-4.4 4.4v1.2c0 2.4 2.1 4.6 4.4 4.4 2.4-.1 4.4-1.9 4.4-4.4v-1.2c.1-2.2-2-4.4-4.4-4.4z" fill="#fff"/><path d="M741.2 335.4h-4c-.4-1.6-.9-3.4-1.6-5-.9-2.2-3-3.7-5.5-3.1-2.1.6-4 3.2-3.1 5.5l.9 2.7h-4.7c-5.8 0-5.8 8.9 0 8.9h6c0 .9 0 1.9-.1 2.8-.3 2.4.6 4.7 3.1 5.5 2.1.6 5.2-.7 5.5-3.1.3-1.8.4-3.5.4-5.2h3.1c5.7-.1 5.7-9 0-9zM638.4 102.2c-1.9.1-3.8.1-5.8.1-.3-1.8-.4-3.4-.7-5.2-.3-2.4-3.4-3.7-5.5-3.1-2.5.7-3.4 3.1-3.1 5.5l.3 1.9c-.7-.1-1.3-.1-2.1-.3-5.6-1.2-8 7.4-2.4 8.6 1.9.4 3.8.7 5.6 1l1 6.8c.3 2.4 3.4 3.7 5.5 3.1 2.5-.7 3.4-3.1 3.1-5.5-.1-1.3-.3-2.5-.6-3.8 1.5 0 3 0 4.4-.1 6-.6 6-9.5.3-9zM85.8 252.9c-3.4.4-6.8 1-10.2 1.8-.1-1.5-.3-3.1-.4-4.6-.6-5.6-9.4-5.6-8.9 0 .3 2.4.4 4.7.7 7.1-.6.1-1 .3-1.6.6-5.3 1.9-3 10.5 2.4 8.6h.1c.1 2.2.4 4.4.6 6.6.6 5.6 9.4 5.6 8.9 0l-.9-9.3c3.1-.7 6.2-1.3 9.3-1.8 5.7-.7 5.7-9.5 0-9zm26.3 99.2h-5.2c-.4-1.8-.7-3.4-1.2-5.2-1.3-5.6-9.9-3.2-8.6 2.4.3 1.2.6 2.4.9 3.7-1.3.1-2.5.4-3.8.7-5.6 1.2-3.2 9.7 2.4 8.6 1.2-.3 2.4-.4 3.4-.6.3 1.5.7 3 1 4.4 1.3 5.6 9.9 3.2 8.6-2.4-.1-.9-.4-1.8-.6-2.8h3.1c5.8.3 5.8-8.5 0-8.8z" fill="#f7d06f"/><path d="M415.7 89.3c-5.8 0-5.8 8.9 0 8.9s5.8-8.9 0-8.9zM221 79.4c-5.8 0-5.8 8.9 0 8.9 5.7 0 5.7-8.9 0-8.9zm-117.3 82.5c-5.8 0-5.8 8.9 0 8.9s5.8-8.9 0-8.9zM42.8 324.6c-5.8 0-5.8 8.9 0 8.9 5.7 0 5.7-8.9 0-8.9zm667.4-142.3c-5.8 0-5.8 8.9 0 8.9 5.6-.1 5.6-8.9 0-8.9zm19 76.5c-5.8 0-5.8 8.9 0 8.9s5.8-8.9 0-8.9zm-41.7 99.3c-2.4.1-4.4 1.9-4.4 4.4v1.2c0 2.4 2.1 4.6 4.4 4.4 2.4-.1 4.4-1.9 4.4-4.4v-1.2c0-2.3-2-4.5-4.4-4.4zm78.9 46.7c-5.8 0-5.8 8.9 0 8.9 5.6-.1 5.6-8.9 0-8.9zM566.7 98.5c-5.8 0-5.8 8.9 0 8.9 5.6-.1 5.6-8.9 0-8.9zm5.4 182.8c-5.8 0-5.8 8.9 0 8.9 5.6-.1 5.6-8.9 0-8.9z" fill="#fff"/><path d="M230 215.5c-.6-8.7-3-17.7-11.8-21.4-6.8-2.8-14.3-.7-17.4 6.2-4.7 10.2-4.1 24.6-4.3 35.6-.1 12.4 1.2 24.6 3.1 36.7 1.5 9.1 2.5 22 9.7 28.9 5.5 5.2 14.5 5.6 19.6-.1.1-.1.3-.3.4-.6 2.2 0 4.4-1.3 4.1-4.3-1.9-26.9-1.8-54-3.4-81z" fill="#ef86b0"/><path d="M231.6 165.3c-20.5-8.7-45.3 12.8-53.1 30.4-8.4 19-7.8 54.7 19.5 56.2h1c4.1 0 5.5-6.9.7-8.9-16.7-6.5-16.2-30.1-10.2-43.8 6.9-15.8 22.7-25.2 39.7-25.5 4.2-.1 6.7-6.6 2.4-8.4z" fill="#57455d"/><path d="M314.4 234.7c24.8-25.8 42.3-58 50.5-92.8 4-17 6.2-35.3 4.9-52.8-.4-6.3-1.9-13.3-7.2-17.4-5-3.8-11.1-2.8-14.9 2.1-4.1 5.3-4.7 13.3-6.2 19.6-2.1 9-4.1 17.9-6.6 26.7-4.7 17-10.8 33.8-20.2 48.8-4.6 7.2-9.9 13.9-16.1 19.6-9.4 8.9-18.9 12-31.4 8-8-2.5-21.1-6.8-23.6-15.9-2.7-9.7 0-21.8 3.1-31.1 7.2-22.3 23.6-39.8 41.2-54.7 13.7-11.5 35.6-22.1 39.2-41.5.4-2.5-1.2-5.9-4.3-5.6-31.1 2.8-59.6 19-78.8 43.5-20.9 26.7-29.8 60.9-28.6 94.4 0 1.3.6 2.2 1.3 3-.1 20.4 1.5 40.6 4.9 60.6 2.8 31.7 6.2 63.4 10.2 95.2 3.2 25.7 6.9 51.3 10.9 77 1 6.6 2.1 13.3 3.2 19.9 1 6.5 3.2 13.6 3.1 20.1-.3 9.1-11.2 12.5-12 22.1-.1 2.5 2.2 4.3 4.4 4.4 11.1.4 21.8-.9 32.6-3.8 1.9-.6 3.2-2.4 3.2-4.3.6-39.8 1.3-79.7 1.9-119.5 4 21.1 8.1 42.3 12.1 63.4 1.6 8.6 3.2 17.1 4.9 25.7 1.5 7.7 2.1 16.5 4.7 23.9 4.4 12.4 25.1 10.2 35.4 9.6 3.2-.1 5.6-3.7 3.8-6.6-4.7-7.8-13-11.1-14.6-20.8-1.8-10.5-2.2-21.2-3.2-31.7-2.1-21.7-4-43.5-5.6-65.2-3-41-4.4-82.2-3.2-123.2.1 0 .5-.3 1-.7z" fill="#fff"/><path d="M293.7 258.3c-.1-10.5.6-24.2-3.1-34.2-3.2-8.7-15.9-7.7-23.5-8.1-6.8-.4-19.6-3-24.3 3.8-2.1 3-2.1 7.4-2.5 10.9-.7 6.2-1 12.5-.7 18.9.3 9.4.4 23.5 7.5 30.8 7.4 7.8 20.7 5.5 29.8 3 1-.3 1.8-.7 2.2-1.5 2.4-.1 4.9-.6 7.1-1 9.7-2.6 7.5-14.7 7.5-22.6z" fill="#f7d06f"/><path d="M294.2 53c-17 6.6-33.2 15-45.3 29.1-2.2 2.5-1 5.6 1.2 6.9 4 4.6 8.1 9 12.1 13.6 2.5 2.8 4.9 6.3 8.9 6.8 4 .4 7.7-2.4 10.8-4.4 4.3-2.7 8.6-5.6 12.5-8.7 7.8-5.9 15-12.2 21.8-19.2 5.3-5.5 13.6-12.5 14.2-20.7 1.5-20.3-27.5-6.8-36.2-3.4zm76.7 24.4c-2.5-4.9-6.9-11.4-12.8-12.1-5.8-.6-9.1 4.7-11.4 9.1-3.5 6.9-5.5 14.6-7.8 22-3 9.3-5.9 18.7-8.9 28-1.3 4.1 3.2 6.5 6.3 5 .1 0 .1.1.3.1 8.4 1.6 17 3 25.5 3.1 7.1 0 9.4-1.9 10.9-8.9 3.2-15 5.4-32-2.1-46.3z" fill="#74a2d6"/><path d="M496.9 381.2c4.7 8.9 13.6 7.8 22.1 7.4 11.8-.6 23.8-.9 35.4-1.9 8-.7 16.5-3.1 19.9-11.2 2.5-5.6 1.8-11.7.4-17.6 1-1.2 1.6-2.8.9-4.6-3.1-8.4-14-8.3-21.4-8.9-11.4-.9-22.9-.6-34.2 1-8.6 1.2-17.3 1.6-21.2 10.3-3.5 7.6-6.1 17.6-1.9 25.5z" fill="#ef86b0"/><path d="M405 369.6c16.8 20.1 44.4 27 69.5 23.8 2.8-.3 3.8-2.7 3.5-4.9 10.8-1.6 19-8.7 25.1-18.3 7.7-12.2 13.9-28.3 14.8-42.8 3.7-59.3-95.6-63.1-119.7-20.9-11.2 19.6-7.5 46 6.8 63.1z" fill="#b4c7e7"/><path d="M424.4 480.6c2.7 2.5 6.3-.1 7.1-3 2.5-11.2 3.8-22.7 3.8-34.2 0-4.7-2.1-10.5 3.1-11.8 3.5-1 8.3-.7 12.5-.6.3 18.3 3.2 36.1 8.7 53.6.7 2.5 3.7 3 5.9 2.2 7.5-2.4 8.7-10.6 8.6-17.6-.3-11.2-1-22.6-1.6-33.8 7.2-.9 14.5-1.2 21.8-1 4 .1 9.4-.6 12.5 2.2 2.5 2.4 1.5 5.5 1.6 8.7.4 13 5.8 25.2 14.5 35 2.4 2.7 7.7 1.9 7.8-2.2.3-8.9.6-17.6.9-26.4.1-3.5-.7-9.1.4-12.5 1.5-4.4 8-3.5 11.8-4 15.9-1.8 31.9-3.5 47.7-5.2 2.4 14.2 6.9 27.6 13.9 40.1 1.9 3.4 8.3 3.5 8.4-1.2 1.2-44.3-3.8-88.2-15.5-131-1.3-4.6-8-5.2-8.7.1s-1.6 10.6-2.4 15.9c-.7 4.4-.1 13.4-4.7 15.8-3.2 1.6-10.3 1-13.9 1.2-4.6.3-9.3.6-14 .9-20.1.9-40.1.3-60.2-1.3-1.6-.1-3 .6-3.7 1.5-18 .3-35.9.4-53.9.7-6.5.1-16.1-1.6-21.8 1.6-5.5 3.2-4.7 10.3-5 15.9-.7 18.1-.4 36.3 1 54.3 1 13.4 3.1 26.5 13.4 36.1z" fill="#fff"/><path d="M420.3 374.5c7.1 2.5 14.5 3.5 22 3.8 7.4.9 14.8 1.3 22.3 1.2 4.4-.1 15.2.9 19.8-2.8 2.1.1 4-1 4-3.7 0-9.9-.4-19.8-1.9-29.5-1-6.6-2.4-13-7.8-17.3-2.5-1.9-5.5-.6-6.8 1.9-2.1 3.8-4.1 7.7-6.2 11.5-10.2-.1-20.5 0-30.7.3-1.2-2.4-2.2-4.9-3.4-7.1-1.8-3.2-6.6-3.5-8.1.1-5 11.8-5.6 24.5-5.8 37.2-.2 1.6.5 3.7 2.6 4.4z" fill="#56597a"/><path d="M589.4 438.1c1.9 10.9 6.5 24.9 13.6 33.6 5.3 6.5 13 3.7 14.5-3.8 2.4-12.1.1-26.7-2.1-38.7-.4-2.5-2.5-3.7-4.4-3.5-.7-1.2-2.2-1.8-4-1.3-9.1 2.2-19.7 2-17.6 13.7zm-82.5 6.2c1.8 8.4 3.1 17.1 5.6 25.4 1.6 5.2 4.7 12.5 10.9 13.1 6.9.7 7.8-6.8 8.7-12 1.5-8.6 1.8-17.4 1.9-26.1 0-1-.3-2.1-.9-2.8-.6-1.2-1.6-2.1-3.2-2.4-6.5-1-12.8-1.2-19.3-.4-2.2.3-4.1 2.8-3.7 5.2zm-52.4 30.1c.9 5.5 2.1 14.9 9.9 14 7.2-.9 8.6-9.4 9.4-15.2 1.8-10.2 2.4-20.4 2.1-30.5-.1-4.1-4.6-4.6-7.1-2.4-5-.1-10.2-.4-14.9.9-1.5.4-2.4 2.1-2.7 3.5-.9 4.1.3 9.1.7 13.4.9 5.4 1.6 10.8 2.6 16.3zM424.4 489c7.5 2.2 9-5.3 9.7-10.8 1.5-10.3 2.7-20.7 3.4-31.1v-1c.3-2.2-.9-4.7-3.7-5.2-6.3-1-12.4-1.2-18.7-.1-2.7.4-3.8 2.7-3.7 5 .2 11.3-1.7 38.8 13 43.2z" fill="#74a2d6"/><path d="M465.5 356.8c1.5-1.9 4.3-2.4 6.2-.9l.9.6c1.5 1.2 2.2 3.2 1.5 5 3.2-2.2 6.2-4.9 8.6-8.1 3.4-4.6 10.5.7 7.1 5.3-3.1 4.1-6.8 7.7-11.1 10.5-2.1 1.3-4.6 1.3-6.2-.7-.9-1.2-1.2-3-.6-4.4-1.5.7-3.1.6-4.6-.4l-.9-.6c-1.8-1.4-2.4-4.4-.9-6.3zm-31.8-1l.7-.1c2.4-.3 4.7 1.3 5 3.7.3 2.4-1.3 4.7-3.7 5l-.7.1c-2.4.3-4.7-1.3-5-3.7-.3-2.5 1.4-4.7 3.7-5zm6.2 14.4c1.9-3.5 4.1-6.5 7.1-9.3 1.3-1.2 4-1.3 5.5-.1 3.1 3 5.6 6 7.5 9.9 2.5 5.2-5.6 8.7-8.1 3.5-.6-1.2-1.2-2.4-2.1-3.4-.6.9-1.2 1.6-1.6 2.7-1.2 2.1-3.4 3.4-5.8 2.5-2-.9-3.5-3.7-2.5-5.8z" fill="#57455d"/><path d="M410.6 348.5c2.1-1.6 4.6-1 6.2.7 3.4 3.5 7.4 6.6 11.7 9.3 2.1 1.3 2.2 4.4.9 6.2-1.5 2.1-4.1 2.2-6.2.9-4.9-3.1-9.3-6.8-13.3-10.9-1.7-1.6-1.1-4.7.7-6.2zm60-20.2c0-2.4 1.2-4.6 3.7-5 2.1-.3 5 1.3 5 3.7 0 4.4.1 8.9.1 13.3 0 2.4-1.2 4.6-3.7 5-2.1.3-5-1.3-5-3.7.1-4.6-.1-9-.1-13.3zm-48.5 5.8c1-5.6 9.7-4.6 8.9 1-.6 3.8-.9 7.5-.6 11.4.4 5.6-8.3 6.9-8.7 1.3-.7-4.4-.5-9.1.4-13.7z" fill="#57455d"/><path d="M504.8 301.8c3.1-3.5 7.4-1.5 9.7 1.8.1.3.4.6.6.9 6 4.6 7.1 12.5 3.5 19-1 1.9-4.6 2.4-6.2.9-3.2-3.1-6.6-6.5-8.4-10.8-1.4-3.6-2-8.9.8-11.8zm18.6 47.8c1.3-6.3 10.2-6.3 15.6-5.6 4.4.1 9.1 1.6 10.5 5.6 2.5 7.5-7.4 8.7-12.2 8.4-5-.2-15.5-1.2-13.9-8.4z" fill="#f7d06f"/><path d="M509.7 310.2c1.5-3.2 4.3-4.9 7.4-5.5 8.1-2.7 17 .9 21.8 8.3 2.5 3.8 3.8 8.1 4.3 12.5.3 1.8.3 3.5.3 5.3.6 5.2.1 10.3-1.2 14.8-2.1 6.8-12.5 7.7-12.5-.6 0-6 3.7-11.4 3.1-17.9-.3-3.8-1.8-7.5-4.6-10.2-4-1.9-9.3-1.3-13.7-.9-3.3.7-6.4-2.6-4.9-5.8z" fill="#57455d"/><path d="M408.2 372.2c4.9-4.3 10.8-5.2 17-5 8.4.3 16.8 1.2 25.4 1.3h11.2c.6-.3 1.2-.6 1.9-.6 8.3-.9 16.5-1.6 24.8-2.5 5.9-.6 15-3.2 20.7-1.2 3.5 1.3 5.2 4.9 4.3 8.6-1.2 5-5.9 6.5-10.6 6.9-16.5 1.5-33.2 1.6-49.9 2.4-13.9.7-30.7 4.1-43.8-2.1-2.9-1.8-3.5-5.6-1-7.8z" fill="#ef86b0"/><path d="M489.8 430.1c-.6-6.9 4-10.5 10.5-11.5 10.6-1.9 22-2.2 32.8-2.7 12.2-.4 38.9-4.9 39.1 13.9 0 1.9-.9 3-2.2 3.4-.6.6-1.5 1-2.2 1.2-23.9 4-47.9 4.4-72 1.3-1.5-.1-2.8-1.2-3.4-2.5-1.4-.6-2.5-1.7-2.6-3.1z" fill="#f7d06f"/><path d="M410 448.4c7.4-2.4 14.8-3.4 22.4-3.1 5.8.1 4.6 9-1 8.9-6-.3-12.1.6-17.7 2.5-5.5 1.6-9-6.5-3.7-8.3zm45.4-1c5 .7 10.2 1 15.2.6 5.6-.4 6.9 8.4 1.3 8.7-5.9.4-11.8.3-17.6-.6-5.5-.7-4.5-9.4 1.1-8.7zm55.3.1c6-1 12.2-1 18.4-.1 5.6.9 4.6 9.6-1 8.9-5.5-.9-10.6-.7-16.1.1-5.7.9-7-8-1.3-8.9zm77.5-10.7c7.4-.9 14.9-1.6 22.3-2.5 5.6-.6 6.9 8.1 1.3 8.7-7.4.9-14.9 1.6-22.3 2.5-5.7.7-7.1-8-1.3-8.7zm-50.5-4c.4-2.2.7-4.4 1.2-6.6.4-2.2 2.5-4.3 5-3.8 2.2.4 4.3 2.5 3.8 5-.4 2.2-.7 4.4-1.2 6.6-.4 2.2-2.5 4.3-5 3.8-2.1-.4-4.2-2.5-3.8-5zm-18.7-1.6c0-2.5 0-5 .1-7.5 0-2.4 2.8-4.1 5-3.8 2.7.3 3.8 2.5 3.8 5s0 5-.1 7.5c0 2.4-2.8 4.1-5 3.8-2.6-.3-3.8-2.5-3.8-5zm-92.2-10.4c8.7.6 17 2.8 24.8 6.8 5 2.5 1.8 10.8-3.4 8.3-7.1-3.7-14.5-5.6-22.4-6.2-5.8-.4-4.6-9.2 1-8.9z" fill="#57455d"/><path d="M332.7 136.8c-3.2-22.7-23.8-37.9-47.5-36.7-24.2 1-43.2 18-52.2 38.7-5.6 12.8-8.3 27.9-2.5 41.2 3.2 7.2 8.9 13.3 15.9 16.8 5 5 10.8 9 18 10.5 13.1 2.7 26-3.5 36.3-10.8 20-13.9 35.5-35.3 32-59.7z" fill="#b4c7e7"/><path d="M296.1 157.3c-.7-9-6.9-17.3-16.4-17.9-11.2-.7-19.5 7.7-24.6 16.5-5.8 9.7-10.6 22.1-4.9 32.9 4.4 8.4 14 12.5 22.9 8.1 7.5-3.7 12.5-11.4 15.6-19.5 4.9-6.5 8-14.3 7.4-20.1z" fill="#f7d3bc"/><path d="M296.1 205.1c-1.3-4.4-6.5-5.9-10.2-7.4-7.2-2.8-14.6-5.6-22-8.3-6.9-2.5-13.9-4.9-20.8-7.1-4.6-1.5-10-4-13.7.4-1.9 2.4-1.6 5.2.9 6.9.1.1.4.3.6.4 0 1.3.6 2.8 2.2 3.5 12.8 6.2 26.1 12.8 39.7 17 5.1 1.9 27.1 7.5 23.3-5.4z" fill="#ef86b0"/><path d="M337.7 465.1c-5.3-3.7-5.5-8.7-6.3-14.6l-2.8-18.4c-.9-5.6-1.6-11.4-2.7-17-.6-3.5-1-7.1-4.7-8.6-4.1-1.6-10.3-.1-14.6.3-6 .6-12.1 1.6-18 2.8-4 .7-3.8 5.3-1.6 7.5 1.9 7.7 4 15.3 5.9 23.2.9 4 1.8 7.8 2.7 11.8 1.5 6.2 2.8 12.4 4.3 18.6.9 4 1.3 8 4.9 10.6 3 2.1 6.5 2.2 9.9 2.5 6.2.6 12.5 1 18.9 1.5 5.9.4 15.6 1.3 16.8-6.8 1.2-7.6-7.8-10-12.7-13.4zm-59.3-20.5c.1-12.2.3-24.5.4-36.7 0-2.5-2.1-4.4-4.4-4.4-9.7-.3-19.5-.4-29.4-.7-2.5-.9-5.9.6-5.9 4 0 15.3 1.5 30.4 4 45.6 1.3 8.1.7 13.4-5.8 19-4.9 4.1-8.9 9-12.1 14.6-1.8 3 .4 6.5 3.8 6.6 10.8.6 21.5 0 32.2-1.6 8.3-1.2 16.1-2.1 16.8-11.7 1-11.5.2-23.3.4-34.7z" fill="#74a2d6"/><path d="M298.3 154.5c-1.6-11.1-10.3-19.8-22-18.6-13.9 1.3-21.5 13.3-27.7 24.3-.9 1.6-.7 3.1 0 4.3.1 2.1 1.6 3.8 4.3 3.8 2.1 0 4-.1 5.9-.3-4.3 1.3-3.8 8.6 1.5 8.6 5.6 0 5.8-8.7.1-8.9 4.4-.7 8.6-2.1 12.5-4 .4 3.8 1 8.4 2.2 12.1h-.3c-2.4.1-4.4 1.9-4.4 4.4v.7c0 .6.1 1.2.4 1.8-.1-.1-.3-.1-.4-.3-3.2-1.2-6.3-2.4-9.6-3.5-2.2-.9-4.9.9-5.5 3.1-.7 2.5.9 4.6 3.1 5.5 3.2 1.2 6.3 2.4 9.6 3.5 2.2.9 4.9-.9 5.5-3.1.3-1 .1-1.9-.1-2.8.4.1 1 .3 1.6.3 1.9-.1 3.7-1.3 4.3-3.1 1.8 1.5 4 2.2 6.9 1.3 10.5-2.6 13.3-20.1 12.1-29.1zM281 94.8c-4.9-8.1-9.6-16.5-14-24.9-2.7-5-10.3-.6-7.7 4.4 4.4 8.4 9.1 16.8 14 24.9 3 5 10.7.6 7.7-4.4zm85.3 21.8c-9.9-1.2-19.8-2.8-29.5-4.6-5.6-1-8 7.5-2.4 8.6 10.6 2.1 21.2 3.7 31.9 5 5.6.5 5.6-8.4 0-9zm-89.8 115.7c-7.5.4-15 .4-22.7.3-5.8-.1-5.8 8.7 0 8.9 7.5.3 15.2.1 22.7-.3 5.6-.4 5.7-9.2 0-8.9zm1.6 18.9c-7.5.7-15 1.5-22.7 2.1-5.6.6-5.6 9.4 0 8.9 7.5-.7 15-1.5 22.7-2.1 5.6-.7 5.6-9.5 0-8.9zm-5.3 166.1c-10.6-1.8-21.2-3-31.9-3.5-5.8-.3-5.6 8.6 0 8.9 9.9.6 19.8 1.6 29.5 3.2 5.6.8 8-7.7 2.4-8.6zm46.9-5.2c-9.7 1.9-19.6 3.4-29.5 4.4-5.6.6-5.6 9.4 0 8.9 10.6-1 21.2-2.7 31.9-4.7 5.6-1 3.2-9.6-2.4-8.6z" fill="#57455d"/><path d="M304.8 234.5c.6-1.9 0-4.3-1.9-5.3-2.1-1-4.9-.6-6 1.6-1.3 2.5-1.8 5.3-1 8.1.7 2.5 4.1 4.4 6.5 2.7 1.8-1.3 2.8-2.8 2.8-5-.1-.9-.3-1.5-.4-2.1zm1.3 24.2c-.3-2.5-2.2-4.6-4.9-4.4-1 0-1.9.3-2.8.9-1.2.6-1.9 1.8-2.2 3-.1.7-.3 1.6 0 2.4v.4c.1 1.8 1 3.4 2.7 4 1.6.7 3.5.3 4.9-.9 1.6-1.3 2.6-3.3 2.3-5.4z" fill="#74a2d6"/><path d="M393.3 46.1c-1.5 0-3.1 0-4.6.1 3-3 5.5-6.3 6.2-10.3.6-3-2.1-6.8-5.5-5.5-11.4 4.6-22.9 9-34.2 13.6-3 1.2-3.5 4.4-2.5 6.6 0 .7.1 1.6.6 2.4 2.8 4.7 4.1 10.8 7.2 15 1.5 2.1 3.4 2.8 5.9 2.4 4.1-.6 9.4-4.6 13.1-6.5 5.5-3 10.6-6.2 15.8-9.6 3.8-2.3 2.6-8.3-2-8.2z" fill="#ef86b0"/><path d="M390.7 122.5c-9.1-25.7-19.3-50.9-30.5-75.8-2.4-5.2-10-.7-7.7 4.4 10.9 24 20.8 48.7 29.7 73.6 1.8 5.5 10.4 3.1 8.5-2.2zM287.1 373.6c-2.5-22.6-4.9-45-7.4-67.6-.6-5.6-9.4-5.6-8.9 0 2.5 22.6 4.9 45 7.4 67.6.6 5.6 9.5 5.8 8.9 0z" fill="#57455d"/></svg>